<?xml version="1.0" encoding="UTF-8"?>
<svg version="1.1" xmlns="http://www.w3.org/2000/svg" width="400" height="170">
<path d="M0 0 C1.32 0.33 2.64 0.66 4 1 C4.33 21.46 4.66 41.92 5 63 C8.87954177 61.44818329 11.76786082 60.01601979 15.21875 57.796875 C16.22397705 57.15234375 17.2292041 56.5078125 18.26489258 55.84375 C19.33247803 55.1528125 20.40006348 54.461875 21.5 53.75 C22.60045654 53.04359375 23.70091309 52.3371875 24.8347168 51.609375 C30.3249366 48.07781617 35.77501514 44.49564638 41.17578125 40.828125 C42.12839844 40.18262695 43.08101563 39.53712891 44.0625 38.87207031 C45.8639944 37.64569788 47.65982408 36.41095285 49.44921875 35.16699219 C50.25617188 34.61688477 51.063125 34.06677734 51.89453125 33.5 C52.59425049 33.0153125 53.29396973 32.530625 54.01489258 32.03125 C56 31 56 31 60 31 C60 32.32 60 33.64 60 35 C57.65529866 36.89692784 55.41169828 38.47535518 52.87109375 40.0703125 C51.75916405 40.79201126 51.75916405 40.79201126 50.62477112 41.52828979 C48.2372987 43.07383652 45.83794608 44.59969899 43.4375 46.125 C41.87741092 47.12889749 40.31815619 48.13409285 38.75976562 49.140625 C37.99298492 49.63512146 37.22620422 50.12961792 36.43618774 50.63909912 C34.8930863 51.63471799 33.35042226 52.63101513 31.80819702 53.62799072 C28.08407861 56.03137239 24.34840487 58.40704864 20.57080078 60.72558594 C19.20456761 61.58499244 17.83851034 62.44467866 16.47265625 63.3046875 C15.84515976 63.67715607 15.21766327 64.04962463 14.57115173 64.43338013 C10.0071629 67.34811526 9.2928486 69.905512 8 75 C6.02 75.99 6.02 75.99 4 77 C4.33 88.55 4.66 100.1 5 112 C8.3 113.32 11.6 114.64 15 116 C20.75671245 120.6601958 23.56004304 124.72237967 25 132 C25.69165765 138.57074771 24.22423684 143.79296083 20.48828125 149.1796875 C17.01174537 153.44527984 13.57633176 156.95380297 8 158 C1.25603775 158.68216776 -5.30545045 158.95476939 -11.28515625 155.40234375 C-16.52896269 151.11412846 -20.38650524 145.20405357 -21.37109375 138.45703125 C-21.5517416 131.26299611 -20.24965864 125.88572577 -16 120 C-10.79768788 114.54256383 -7.87776227 113.98472028 0 113 C0 101.12 0 89.24 0 77 C-5.01256286 78.00251257 -8.24598182 79.73157678 -12.4375 82.4375 C-13.47680664 83.10640259 -13.47680664 83.10640259 -14.53710938 83.78881836 C-15.97668597 84.72162863 -17.41335135 85.65894605 -18.84716797 86.60058594 C-20.93285328 87.95635235 -23.04300827 89.26442699 -25.16015625 90.5703125 C-31.7408416 94.38646475 -31.7408416 94.38646475 -35.76171875 100.41796875 C-35.74050694 102.74079285 -35.74050694 102.74079285 -35.3125 104.96484375 C-34.79832704 108.31339514 -36.16662317 110.2815447 -38 113 C-41.92276148 117.15351216 -46.38001597 118.70852595 -52 119 C-56.73207189 118.27315376 -60.03826096 116.96173904 -63.4375 113.5625 C-66.7255061 108.17017 -67.85690132 104.34106974 -67 98 C-65.18484806 92.719558 -61.96118819 89.4805941 -57 87 C-50.86082855 85.51471659 -46.59104802 86.0400334 -41 89 C-39.65890945 89.98957259 -38.32463109 90.98850099 -37 92 C-36.23856689 91.49549316 -35.47713379 90.99098633 -34.69262695 90.47119141 C-31.85286558 88.59272983 -29.01048525 86.71836844 -26.16625977 84.84667969 C-24.93830527 84.03742323 -23.7114013 83.22657028 -22.4855957 82.4140625 C-20.71843139 81.2431278 -18.94750691 80.07808045 -17.17578125 78.9140625 C-15.58117065 77.8614624 -15.58117065 77.8614624 -13.9543457 76.78759766 C-11.33836127 75.20473359 -8.87145801 74.02601814 -6 73 C-5.9175 71.906875 -5.835 70.81375 -5.75 69.6875 C-5 66 -5 66 -2.98051453 64.64553833 C-0.72163882 63.12991931 -0.72163882 63.12991931 -0.52571106 60.29220581 C-0.53760971 59.20046051 -0.54950836 58.10871521 -0.56176758 56.98388672 C-0.56529739 55.74605438 -0.56882721 54.50822205 -0.57246399 53.23287964 C-0.59621039 51.88181071 -0.62023952 50.53074673 -0.64453125 49.1796875 C-0.65453273 47.79632788 -0.66261934 46.41295319 -0.66886902 45.02957153 C-0.68980131 41.3898809 -0.73387805 37.7508472 -0.78363037 34.1114502 C-0.85891981 28.27898568 -0.89681831 22.44612359 -0.93912315 16.6133461 C-0.95688192 14.57185455 -0.98300199 12.5306057 -1.01069641 10.48922729 C-1.02368271 9.25769928 -1.03666901 8.02617126 -1.05004883 6.75732422 C-1.07147697 5.12209305 -1.07147697 5.12209305 -1.09333801 3.4538269 C-1 1 -1 1 0 0 Z M-13.7421875 125.2421875 C-16.9458949 129.71941833 -17.55555105 133.53708139 -17 139 C-14.77922876 145.62445966 -11.11697201 149.62353648 -5.078125 153.109375 C-0.80973883 154.93868336 3.79976482 154.69150249 8.1875 153.3125 C13.58997288 150.85683051 17.53367613 147.56491583 19.8515625 141.9296875 C21.56718846 135.99734231 20.7602714 131.46904519 18 126 C15.24231182 121.54303214 11.99264417 118.695615 7 117 C-2.16140707 115.92394566 -7.95786509 118.00421339 -13.7421875 125.2421875 Z " fill="#1E3A6F" transform="translate(75,8)"/>
<path d="M0 0 C-0.39475427 5.90770186 -1.27200554 11.58140859 -2.54296875 17.3671875 C-2.81520264 18.6135498 -3.08743652 19.85991211 -3.36791992 21.14404297 C-3.57650635 22.08650879 -3.78509277 23.02897461 -4 24 C-3.04746338 24.01458252 -2.09492676 24.02916504 -1.11352539 24.04418945 C2.4595885 24.1026689 6.03210447 24.17989273 9.60473633 24.26245117 C11.14369926 24.29546921 12.68277656 24.32357122 14.22192383 24.34643555 C24.07009556 24.49666731 32.67821914 24.68643833 41.3125 30.0625 C47.15946092 36.45336426 48.70464222 43.63494308 48.38671875 52.1640625 C47.64923075 57.57230786 45.58821945 61.26739696 41.9375 65.25 C30.60695574 72.00011148 19.58787179 71.48277858 6.8125 71.25 C4.8873884 71.22990117 2.96225651 71.21165639 1.03710938 71.1953125 C-3.64243504 71.15159214 -8.32098973 71.08275238 -13 71 C-14.35439668 68.29120665 -14.06501451 65.99066732 -14 63 C-12.83017578 62.9906543 -11.66035156 62.98130859 -10.45507812 62.97167969 C-6.086211 62.93159938 -1.71803477 62.86579141 2.65039062 62.79248047 C4.53571654 62.76437503 6.42115799 62.74310894 8.30664062 62.72900391 C11.027941 62.70742911 13.74786731 62.66070651 16.46875 62.609375 C17.30241089 62.60814636 18.13607178 62.60691772 18.99499512 62.60565186 C24.75394101 62.46374378 29.17325189 61.21728321 34 58 C37.02734267 54.5942395 37.48656808 51.5309437 37.28125 46.98828125 C36.64640882 42.50030682 34.92519868 39.80524163 31.54833984 36.86621094 C27.14648681 34.06269615 22.42022246 34.39701075 17.3515625 34.390625 C16.33903412 34.37408875 15.32650574 34.35755249 14.28329468 34.34051514 C11.06380096 34.2921073 7.84477938 34.27067969 4.625 34.25 C2.43617426 34.22183437 0.24737044 34.19190611 -1.94140625 34.16015625 C-7.29418533 34.08635051 -12.64683202 34.03466569 -18 34 C-18.13424103 27.17501548 -18.08024783 20.75483189 -16.6875 14.0625 C-16.44386719 12.83660156 -16.20023438 11.61070313 -15.94921875 10.34765625 C-14.76253915 6.16253521 -13.59412944 2.92990884 -9.75 0.6875 C-6.42828228 -0.14292943 -3.41045379 -0.13374329 0 0 Z " fill="#1E3A6F" transform="translate(146,82)"/>
<path d="M0 0 C0.80373047 0.00676758 1.60746094 0.01353516 2.43554688 0.02050781 C3.04462891 0.02920898 3.65371094 0.03791016 4.28125 0.046875 C4.23581055 0.97693359 4.23581055 0.97693359 4.18945312 1.92578125 C3.57168445 14.98446066 3.14303778 28.04526941 3.04907227 41.1184082 C3.0372657 42.52015537 3.02024302 43.92186907 2.99780273 45.32348633 C2.62222839 55.66663562 2.62222839 55.66663562 6.28125 65.046875 C9.5438042 67.69770029 13.20827857 67.31413335 17.28125 67.296875 C19.1065625 67.30460937 19.1065625 67.30460937 20.96875 67.3125 C24.10416572 67.06107515 25.75765947 66.85927183 28.28125 65.046875 C29.67611786 63.18185686 29.67611786 63.18185686 30.78125 61.046875 C32.53270769 57.82797978 33.78641414 56.30242714 37.28125 55.046875 C39.421875 54.8515625 39.421875 54.8515625 41.53125 54.921875 C42.76875 54.963125 44.00625 55.004375 45.28125 55.046875 C43.57066786 66.4357508 43.57066786 66.4357508 39.28125 71.046875 C28.90073686 77.61049843 17.87334439 78.27555628 5.90625 76.359375 C1.11299212 75.25146307 -1.39662272 73.69311226 -4.71875 70.046875 C-7.27344649 64.90546829 -8.4859418 60.07503136 -9.34375 54.421875 C-9.46854736 53.62265625 -9.59334473 52.8234375 -9.72192383 52 C-11.41723533 40.80441934 -11.80443967 29.79958442 -11.84375 18.484375 C-11.85088013 16.7509082 -11.85088013 16.7509082 -11.8581543 14.98242188 C-11.855979 13.88865234 -11.85380371 12.79488281 -11.8515625 11.66796875 C-11.85043457 10.6823999 -11.84930664 9.69683105 -11.84814453 8.68139648 C-11.72995617 6.27503695 -11.56453543 4.30092186 -10.71875 2.046875 C-7.11131189 0.24315595 -3.95730502 -0.04332816 0 0 Z " fill="#1E3A6F" transform="translate(219.71875,76.953125)"/>
<path d="M0 0 C1.17538461 2.74656201 2.34049752 5.49674122 3.5 8.25 C3.83386719 9.02730469 4.16773438 9.80460937 4.51171875 10.60546875 C4.98544922 11.73662109 4.98544922 11.73662109 5.46875 12.890625 C5.76201172 13.58188477 6.05527344 14.27314453 6.35742188 14.98535156 C7 17 7 17 7 21 C14.26 21 21.52 21 29 21 C29 23.64 29 26.28 29 29 C22.73 29 16.46 29 10 29 C10.928125 31.84625 10.928125 31.84625 11.875 34.75 C13.852367 41.13787709 15.04389987 47.38697413 16 54 C11.71 54 7.42 54 3 54 C2.60167969 52.2984375 2.60167969 52.2984375 2.1953125 50.5625 C1.83857214 49.04165952 1.48179958 47.52082659 1.125 46 C0.95097656 45.25621094 0.77695312 44.51242188 0.59765625 43.74609375 C0.42363281 43.00488281 0.24960937 42.26367188 0.0703125 41.5 C-0.16534424 40.49453125 -0.16534424 40.49453125 -0.40576172 39.46875 C-1.24709527 35.97344808 -2.12805229 32.48779083 -3 29 C-14.55 29 -26.1 29 -38 29 C-38 26.36 -38 23.72 -38 21 C-27.77 21 -17.54 21 -7 21 C-9.97 15.06 -9.97 15.06 -13 9 C-13 7.35 -13 5.7 -13 4 C-8.8295862 0.84401118 -5.16257747 -0.13952912 0 0 Z " fill="#1E3A6F" transform="translate(323,75)"/>
<path d="M0 0 C0.12117188 0.71027344 0.24234375 1.42054688 0.3671875 2.15234375 C0.53476562 3.07144531 0.70234375 3.99054688 0.875 4.9375 C1.11863281 6.31228516 1.11863281 6.31228516 1.3671875 7.71484375 C1.57601563 8.46894531 1.78484375 9.22304687 2 10 C4.32851952 11.16425976 5.76280184 11.15457992 8.35791016 11.20532227 C9.70908432 11.2352401 9.70908432 11.2352401 11.08755493 11.26576233 C12.54855118 11.29083107 12.54855118 11.29083107 14.0390625 11.31640625 C15.53305069 11.3475779 15.53305069 11.3475779 17.05722046 11.37937927 C20.24640854 11.44489042 23.43568058 11.50376704 26.625 11.5625 C28.78386293 11.60568373 30.9427173 11.64929797 33.1015625 11.69335938 C38.4009523 11.80057336 43.70042606 11.90233685 49 12 C48.67 14.64 48.34 17.28 48 20 C40.98922119 20.10157378 33.97863275 20.17153861 26.96728516 20.21972656 C24.58309843 20.23981893 22.19896085 20.26709781 19.81494141 20.30175781 C16.38431662 20.35037859 12.95434445 20.37299312 9.5234375 20.390625 C8.46071625 20.41127014 7.397995 20.43191528 6.30307007 20.45318604 C0.20174401 20.45502832 -3.3675579 20.09893184 -8 16 C-9.71484375 13.81640625 -9.71484375 13.81640625 -10.9375 11.5625 C-11.35902344 10.82128906 -11.78054688 10.08007812 -12.21484375 9.31640625 C-13.18497499 6.45427776 -12.94408765 4.84678737 -12 2 C-8.14603706 -0.38038888 -4.4297131 -0.17371424 0 0 Z " fill="#1E3A6F" transform="translate(291,133)"/>
<path d="M0 0 C4.40608743 2.16298837 7.1987497 4.39680479 9 9 C9.68426057 14.04325384 9.5739862 17.83076884 7.3125 22.4375 C4.28115306 25.79656012 2.25860352 27.69355631 -2.33203125 28.31640625 C-8.04951809 28.58213652 -11.60250453 27.96847152 -16 24 C-19.38570467 20.16286804 -19.51291172 16.36598538 -19.3515625 11.4375 C-18.67904883 6.77473854 -16.30117669 4.14809708 -12.875 1.125 C-8.55651358 -0.56484251 -4.5732948 -0.65960983 0 0 Z M-4 5 C-5.65 6.32 -7.3 7.64 -9 9 C-8.73343428 11.93443402 -8.73343428 11.93443402 -8 15 C-5.25305475 17.26142258 -5.25305475 17.26142258 -2.5 16.875 C0.08310662 16.1521503 0.08310662 16.1521503 1.9375 14.25 C3.26777107 12.00466317 3.26777107 12.00466317 2.5 9.375 C0.67193589 6.48056516 -0.76714516 5.9358264 -4 5 Z " fill="#1E3A6F" transform="translate(385,127)"/>
<path d="M0 0 C0.33 4.62 0.66 9.24 1 14 C1.99 13.67 2.98 13.34 4 13 C10.31171212 12.54916342 10.31171212 12.54916342 12.67578125 14.09765625 C14.61688627 16.88620534 14.5211761 19.32775724 14.6875 22.6875 C14.78611328 24.45673828 14.78611328 24.45673828 14.88671875 26.26171875 C14.92410156 27.16535156 14.96148437 28.06898437 15 29 C16.32 29.33 17.64 29.66 19 30 C19 30.33 19 30.66 19 31 C15.04 31 11.08 31 7 31 C7 30.34 7 29.68 7 29 C7.66 28.67 8.32 28.34 9 28 C9 24.7 9 21.4 9 18 C6.03 18 3.06 18 0 18 C0.33 21.3 0.66 24.6 1 28 C1.99 28.33 2.98 28.66 4 29 C4 29.66 4 30.32 4 31 C0.37 31.33 -3.26 31.66 -7 32 C-7.33 31.01 -7.66 30.02 -8 29 C-7.01 29 -6.02 29 -5 29 C-5.10999608 25.24940197 -5.24059869 21.49979656 -5.375 17.75 C-5.42140625 16.15478516 -5.42140625 16.15478516 -5.46875 14.52734375 C-5.50742188 13.50253906 -5.54609375 12.47773437 -5.5859375 11.421875 C-5.6173584 10.47924805 -5.6487793 9.53662109 -5.68115234 8.56542969 C-6.00600977 5.95164571 -6.67676162 4.25646966 -8 2 C-4.91190305 0.23537317 -3.76687864 0 0 0 Z " fill="#1E3A6F" transform="translate(163,25)"/>
<path d="M0 0 C0 0.66 0 1.32 0 2 C0.680625 1.67 1.36125 1.34 2.0625 1 C5.59199518 -0.20153027 8.2934027 -0.34320345 12 0 C13.66796875 1.1015625 13.66796875 1.1015625 15 3 C15.51171875 6.13671875 15.51171875 6.13671875 15.6875 9.6875 C15.78611328 11.45673828 15.78611328 11.45673828 15.88671875 13.26171875 C15.92410156 14.16535156 15.96148437 15.06898437 16 16 C16.99 16.33 17.98 16.66 19 17 C19 17.66 19 18.32 19 19 C15.37 19 11.74 19 8 19 C8 18.34 8 17.68 8 17 C8.66 17 9.32 17 10 17 C9.67 13.37 9.34 9.74 9 6 C4.39467611 4.54685336 4.39467611 4.54685336 2 6 C2 9.3 2 12.6 2 16 C2.99 16.33 3.98 16.66 5 17 C5 17.66 5 18.32 5 19 C1.04 19.33 -2.92 19.66 -7 20 C-7 19.01 -7 18.02 -7 17 C-6.34 16.67 -5.68 16.34 -5 16 C-4.91878076 14.39667209 -4.86070866 12.79215974 -4.8125 11.1875 C-4.77769531 10.29417969 -4.74289062 9.40085937 -4.70703125 8.48046875 C-5.04918998 5.58352485 -5.75393573 4.77444972 -8 3 C-3.375 0 -3.375 0 0 0 Z " fill="#1E3A6F" transform="translate(347,37)"/>
<path d="M0 0 C2.625 1.625 2.625 1.625 3.625 3.625 C4.10335388 6.70705221 4.18252247 9.55066183 3.625 12.625 C0.82108103 15.82947882 -1.27059161 17.27252924 -5.3125 18.5625 C-9.12884955 18.64038468 -11.84461286 18.09044372 -15.375 16.625 C-17.70287996 13.92165553 -18.29942779 12.14320944 -18.8125 8.625 C-18.26226132 4.85193478 -17.05099263 3.30099263 -14.375 0.625 C-9.90131455 -2.61456532 -4.90435009 -1.99806856 0 0 Z M-10.5 2.6875 C-12.72808224 4.60154904 -12.72808224 4.60154904 -12.8125 8.125 C-12.60398658 11.4803769 -12.60398658 11.4803769 -11.3125 13.625 C-8.24164787 15.20995594 -5.65313225 14.30536707 -2.375 13.625 C-1.43228998 10.36860341 -1.43228998 10.36860341 -1.375 6.625 C-3.54244884 3.62320559 -3.54244884 3.62320559 -6.375 1.625 C-8.47282797 1.4759288 -8.47282797 1.4759288 -10.5 2.6875 Z " fill="#1E3A6F" transform="translate(332.375,38.375)"/>
<path d="M0 0 C2 2 2 2 2.1953125 5.0390625 C2.17210937 6.22242188 2.14890625 7.40578125 2.125 8.625 C2.10695313 9.81351563 2.08890625 11.00203125 2.0703125 12.2265625 C2.04710937 13.14179687 2.02390625 14.05703125 2 15 C3.32 15 4.64 15 6 15 C6 15.99 6 16.98 6 18 C3.36421946 19.31789027 1.05435742 19.01348832 -1.8359375 18.9609375 C-4.28780933 18.95326277 -4.28780933 18.95326277 -7.8125 19.625 C-11 20 -11 20 -14 18 C-14.5 15.0625 -14.5 15.0625 -14 12 C-10.64223849 9.13602695 -7.31612964 8.50187554 -3 8 C-3.33 6.68 -3.66 5.36 -4 4 C-4.5775 4.309375 -5.155 4.61875 -5.75 4.9375 C-7.84294184 5.92583364 -9.74535275 6.5168613 -12 7 C-12.33 5.68 -12.66 4.36 -13 3 C-8.51982193 -0.36013356 -5.41184254 -0.44359365 0 0 Z M-9 13 C-8.67 13.99 -8.34 14.98 -8 16 C-6.35 15.67 -4.7 15.34 -3 15 C-3 13.68 -3 12.36 -3 11 C-5.46278801 11 -6.85224119 11.85452863 -9 13 Z " fill="#1E3A6F" transform="translate(292,37)"/>
<path d="M0 0 C2 2 2 2 2.1953125 5.0390625 C2.17210937 6.22242188 2.14890625 7.40578125 2.125 8.625 C2.10695312 9.81351563 2.08890625 11.00203125 2.0703125 12.2265625 C2.04710937 13.14179687 2.02390625 14.05703125 2 15 C3.32 15 4.64 15 6 15 C5.34 16.32 4.68 17.64 4 19 C2.824375 18.979375 1.64875 18.95875 0.4375 18.9375 C-2.46618791 18.92205485 -4.90958801 19.14911279 -7.8125 19.625 C-11 20 -11 20 -14 18 C-14.5 15.0625 -14.5 15.0625 -14 12 C-10.64223849 9.13602695 -7.31612964 8.50187554 -3 8 C-3.33 6.68 -3.66 5.36 -4 4 C-4.5775 4.309375 -5.155 4.61875 -5.75 4.9375 C-7.84294184 5.92583364 -9.74535275 6.5168613 -12 7 C-12.33 5.68 -12.66 4.36 -13 3 C-8.51982193 -0.36013356 -5.41184254 -0.44359365 0 0 Z M-9 13 C-8.67 13.99 -8.34 14.98 -8 16 C-6.35 15.67 -4.7 15.34 -3 15 C-3 13.68 -3 12.36 -3 11 C-5.46278801 11 -6.85224119 11.85452863 -9 13 Z " fill="#1E3A6F" transform="translate(198,37)"/>
<path d="M0 0 C3.48575882 1.93202912 5.7744776 3.80710147 7.8125 7.3125 C8.5625 11.125 8.5625 11.125 8.8125 14.3125 C5.11152033 14.3125 4.14215522 14.22238652 1.09765625 12.6328125 C0.06801758 12.10494141 0.06801758 12.10494141 -0.98242188 11.56640625 C-1.68947266 11.19386719 -2.39652344 10.82132813 -3.125 10.4375 C-9.5315811 7.10559082 -9.5315811 7.10559082 -16.1875 4.3125 C-15.85161682 1.79337612 -15.61395046 0.64053881 -13.5625 -0.9375 C-8.6585298 -2.48612217 -4.61949592 -2.12479608 0 0 Z " fill="#1E3A6F" transform="translate(174.1875,79.6875)"/>
<path d="M0 0 C0.90105469 0.01804688 1.80210937 0.03609375 2.73046875 0.0546875 C3.41753906 0.07789063 4.10460937 0.10109375 4.8125 0.125 C5.1425 2.105 5.4725 4.085 5.8125 6.125 C5.255625 5.980625 4.69875 5.83625 4.125 5.6875 C1.69865805 5.09730872 -0.73656345 4.601571 -3.1875 4.125 C-1.90252463 6.69495074 -0.68837627 7.02934463 1.875 8.25 C2.97521484 8.77980469 2.97521484 8.77980469 4.09765625 9.3203125 C4.94650391 9.71863281 4.94650391 9.71863281 5.8125 10.125 C6.125 13.4375 6.125 13.4375 5.8125 17.125 C3.9375 19.125 3.9375 19.125 0.8125 20.125 C-2.56950459 20.05787624 -5.85033333 19.66283463 -9.1875 19.125 C-9.1875 17.145 -9.1875 15.165 -9.1875 13.125 C-8.671875 13.434375 -8.15625 13.74375 -7.625 14.0625 C-4.52084577 15.41559287 -1.53634993 15.73859424 1.8125 16.125 C-0.9694368 12.85213318 -4.46704067 11.16072303 -8.1875 9.125 C-8.375 5.75 -8.375 5.75 -8.1875 2.125 C-4.87379 -0.08414 -3.8428979 -0.09981553 0 0 Z " fill="#1E3A6F" transform="translate(267.1875,36.875)"/>
<path d="M0 0 C0.33 9.24 0.66 18.48 1 28 C1.99 28.33 2.98 28.66 4 29 C4 29.66 4 30.32 4 31 C0.37 31.33 -3.26 31.66 -7 32 C-7.33 31.01 -7.66 30.02 -8 29 C-7.34 28.67 -6.68 28.34 -6 28 C-6 20.74 -6 13.48 -6 6 C-6.66 5.67 -7.32 5.34 -8 5 C-8 4.01 -8 3.02 -8 2 C-4.91190305 0.23537317 -3.76687864 0 0 0 Z " fill="#1E3A6F" transform="translate(308,25)"/>
<path d="M0 0 C0.33 0.66 0.66 1.32 1 2 C1.99 1.34 2.98 0.68 4 0 C6.6875 -0.125 6.6875 -0.125 9 0 C9 1.65 9 3.3 9 5 C6.50935112 5.68707555 4.62113708 6 2 6 C1.67 9.3 1.34 12.6 1 16 C2.32 16.33 3.64 16.66 5 17 C5 17.66 5 18.32 5 19 C1.04 19 -2.92 19 -7 19 C-7 18.34 -7 17.68 -7 17 C-6.34 16.67 -5.68 16.34 -5 16 C-4.91878076 14.39667209 -4.86070866 12.79215974 -4.8125 11.1875 C-4.77769531 10.29417969 -4.74289063 9.40085937 -4.70703125 8.48046875 C-5.04918998 5.58352485 -5.75393573 4.77444972 -8 3 C-3.375 0 -3.375 0 0 0 Z " fill="#1E3A6F" transform="translate(228,37)"/>
<path d="M0 0 C0 4.95 0 9.9 0 15 C0.99 15.33 1.98 15.66 3 16 C3 16.66 3 17.32 3 18 C-0.63 18 -4.26 18 -8 18 C-8 17.34 -8 16.68 -8 16 C-7.34 16 -6.68 16 -6 16 C-5.91909029 14.37581255 -5.86085005 12.75048255 -5.8125 11.125 C-5.77769531 10.22007813 -5.74289063 9.31515625 -5.70703125 8.3828125 C-5.85205078 7.20332031 -5.85205078 7.20332031 -6 6 C-6.99 5.34 -7.98 4.68 -9 4 C-8 1 -8 1 -5.625 -0.25 C-3 -1 -3 -1 0 0 Z " fill="#1E3A6F" transform="translate(215,38)"/>
<path d="M0 0 C2.125 0.9375 2.125 0.9375 4 2 C3.67 3.32 3.34 4.64 3 6 C1.125 6.625 1.125 6.625 -1 7 C-1.66 6.34 -2.32 5.68 -3 5 C-2.75 2.9375 -2.75 2.9375 -2 1 C-1.34 0.67 -0.68 0.34 0 0 Z " fill="#1E3A6F" transform="translate(212,26)"/>
</svg>
